<?xml version="1.0" standalone="no"?>
<!DOCTYPE svg PUBLIC "-//W3C//DTD SVG 20010904//EN"
 "http://www.w3.org/TR/2001/REC-SVG-20010904/DTD/svg10.dtd">
<svg version="1.0" xmlns="http://www.w3.org/2000/svg"
 width="256.000000pt" height="256.000000pt" viewBox="0 0 256.000000 256.000000"
 preserveAspectRatio="xMidYMid meet">

<g transform="translate(0.000000,256.000000) scale(0.100000,-0.100000)"
fill="#000000" stroke="none">
<path d="M1045 2530 c-367 -79 -663 -301 -838 -628 l-44 -82 -18 40 c-10 23
-26 45 -36 51 -50 26 -109 -7 -109 -61 0 -37 86 -246 114 -277 11 -13 31 -23
47 -23 31 0 255 93 281 117 25 22 23 78 -3 104 -22 22 -65 23 -113 3 -31 -12
55 142 130 232 175 210 404 342 666 384 124 20 343 8 453 -24 183 -54 327
-138 462 -269 130 -127 204 -243 272 -432 30 -82 42 -102 65 -113 37 -18 80
-1 96 38 10 24 8 41 -15 111 -39 122 -78 201 -151 311 -162 244 -422 428 -714
506 -81 21 -121 25 -275 28 -150 3 -195 0 -270 -16z"/>
<path d="M1367 2073 c-20 -21 -171 -202 -336 -403 -257 -311 -301 -369 -301
-396 0 -23 8 -39 26 -53 24 -19 40 -21 175 -21 l149 0 0 -358 c0 -335 1 -360
18 -375 10 -10 35 -17 55 -17 35 0 42 8 359 390 178 214 327 400 332 414 5 13
6 35 2 50 -11 44 -56 56 -206 56 l-130 0 0 328 c0 180 -4 342 -10 361 -20 71
-79 81 -133 24z m10 -845 c20 -19 37 -23 128 -27 l105 -6 -187 -228 -188 -227
-6 282 c-3 156 -6 284 -7 285 -34 39 -47 43 -149 43 -57 0 -103 3 -103 6 0 3
84 107 188 232 l187 226 5 -282 c5 -274 6 -282 27 -304z"/>
<path d="M2240 964 c-69 -30 -131 -62 -137 -71 -19 -24 -16 -77 5 -95 29 -25
50 -28 93 -13 23 8 44 15 46 15 14 0 -101 -194 -152 -254 -218 -262 -501 -396
-835 -396 -294 0 -536 98 -747 303 -130 127 -204 243 -272 432 -30 82 -42 102
-65 113 -36 18 -80 1 -96 -38 -9 -22 -8 -39 6 -86 116 -403 458 -732 874 -841
118 -31 352 -42 480 -24 388 57 747 317 916 664 27 56 44 72 44 43 0 -8 11
-27 23 -42 46 -53 127 -26 127 42 0 41 -94 263 -121 287 -31 25 -52 21 -189
-39z"/>
</g>
</svg>
