<?xml version="1.0" standalone="no"?>
<!DOCTYPE svg PUBLIC "-//W3C//DTD SVG 20010904//EN"
 "http://www.w3.org/TR/2001/REC-SVG-20010904/DTD/svg10.dtd">
<svg version="1.0" xmlns="http://www.w3.org/2000/svg"
 width="256.000000pt" height="256.000000pt" viewBox="0 0 256.000000 256.000000"
 preserveAspectRatio="xMidYMid meet">

<g transform="translate(0.000000,256.000000) scale(0.100000,-0.100000)"
fill="#000000" stroke="none">
<path d="M1057 2548 c-11 -9 -21 -46 -32 -113 -30 -189 -95 -413 -169 -579
-31 -70 -32 -78 -6 -101 38 -35 64 -14 109 88 54 125 103 275 136 422 15 66
28 122 30 124 6 6 110 -159 148 -234 75 -150 147 -380 187 -590 25 -137 50
-350 50 -432 0 -106 26 -136 89 -105 45 21 134 121 177 198 46 83 105 232 135
343 l23 84 13 -39 c25 -71 72 -268 87 -364 42 -267 24 -503 -51 -685 -49 -118
-151 -249 -243 -315 l-32 -23 7 24 c40 123 34 240 -22 414 -31 96 -37 105 -73
105 -33 0 -45 -14 -55 -60 -19 -98 -55 -168 -55 -107 0 38 -46 190 -74 247
-34 67 -92 147 -116 160 -12 6 -28 7 -43 1 -19 -7 -27 -23 -42 -78 -31 -117
-74 -218 -132 -310 -76 -121 -104 -184 -110 -252 -6 -69 15 -150 51 -200 14
-19 24 -36 22 -38 -2 -3 -36 9 -75 26 -258 110 -431 319 -476 576 -19 110 -19
150 0 260 19 107 57 201 130 320 30 50 55 95 55 102 0 20 -30 43 -55 43 -31 0
-89 -84 -155 -224 -67 -142 -85 -223 -84 -376 1 -146 22 -240 83 -365 150
-313 494 -514 839 -492 321 21 587 195 721 470 109 222 136 492 81 815 -27
153 -52 248 -112 431 -58 171 -77 197 -122 168 -19 -13 -26 -31 -35 -84 -40
-236 -142 -508 -230 -614 -19 -22 -20 -23 -21 -4 -1 57 -34 306 -56 419 -76
392 -222 721 -402 909 -48 49 -67 56 -95 35z m301 -1770 c32 -77 57 -188 68
-301 5 -56 11 -71 29 -83 21 -14 27 -14 53 0 31 16 68 60 98 116 l18 35 7 -30
c12 -54 9 -160 -6 -212 -21 -70 -63 -123 -125 -157 -139 -76 -318 -27 -384
105 -47 94 -34 153 64 305 58 89 130 244 130 279 0 34 20 11 48 -57z"/>
<path d="M740 1630 c-24 -24 -25 -43 -4 -64 18 -19 55 -21 72 -4 18 18 15 53
-6 71 -24 22 -38 21 -62 -3z"/>
</g>
</svg>
