<?xml version="1.0" standalone="no"?>
<!DOCTYPE svg PUBLIC "-//W3C//DTD SVG 20010904//EN"
 "http://www.w3.org/TR/2001/REC-SVG-20010904/DTD/svg10.dtd">
<svg version="1.0" xmlns="http://www.w3.org/2000/svg"
 width="256.000000pt" height="256.000000pt" viewBox="0 0 256.000000 256.000000"
 preserveAspectRatio="xMidYMid meet">

<g transform="translate(0.000000,256.000000) scale(0.100000,-0.100000)"
fill="#000000" stroke="none">
<path d="M513 2548 c-5 -7 -25 -51 -43 -97 -37 -94 -35 -108 21 -128 19 -7
121 -40 228 -75 l193 -62 139 -124 c76 -69 139 -128 139 -132 0 -4 -9 -19 -20
-33 -26 -33 -25 -63 1 -77 27 -15 29 -12 159 149 l104 129 60 -41 c525 -369
734 -519 749 -539 21 -28 33 -94 23 -131 -3 -13 -26 -52 -51 -86 -25 -33 -45
-69 -45 -80 0 -10 61 -195 136 -410 74 -216 134 -394 132 -395 -3 -3 -76 -26
-225 -72 l-42 -13 -32 84 c-17 47 -37 89 -44 95 -8 7 -96 4 -281 -11 -148 -11
-290 -19 -316 -16 -56 5 -112 43 -134 90 -19 43 -134 541 -134 582 0 27 24 65
120 196 72 96 119 168 115 176 -11 30 -178 255 -192 260 -20 8 -47 -9 -51 -30
-2 -9 31 -64 72 -122 42 -58 76 -110 76 -115 0 -6 -42 -66 -92 -133 -111 -146
-128 -178 -128 -234 0 -51 123 -580 144 -622 20 -37 70 -87 108 -107 48 -25
119 -27 343 -10 116 8 230 17 255 18 l44 3 33 -84 c42 -107 46 -112 93 -105
l38 6 37 -113 c21 -63 43 -120 51 -128 11 -12 28 -10 120 15 59 16 117 36 128
45 18 15 19 20 7 60 -7 24 -22 68 -33 97 -17 46 -23 52 -48 52 -39 0 -44 -24
-20 -95 11 -32 19 -59 18 -60 -6 -5 -120 -36 -123 -33 -1 2 -16 45 -33 96 -22
66 -27 94 -19 97 7 2 57 18 112 36 109 34 125 43 125 69 0 9 -63 198 -140 420
l-139 403 34 48 c46 62 65 109 65 161 0 116 -38 160 -280 329 -96 67 -277 193
-401 281 -125 87 -235 158 -245 158 -11 0 -30 -13 -44 -29 l-25 -30 -161 132
-162 132 -243 83 c-134 45 -249 82 -255 82 -6 0 -16 -6 -21 -12z m267 -152
l214 -74 153 -123 c84 -68 153 -128 153 -134 -1 -11 -46 -65 -55 -65 -3 0 -70
58 -150 129 l-143 129 -206 67 c-113 36 -206 69 -206 74 0 8 21 71 23 71 1 0
99 -33 217 -74z"/>
<path d="M336 2018 c-142 -171 -254 -357 -307 -508 -17 -49 -23 -88 -23 -160
-1 -87 2 -101 31 -162 71 -151 218 -239 401 -239 254 0 445 187 429 421 -6 87
-32 172 -89 285 -86 172 -299 455 -343 455 -16 0 -44 -26 -99 -92z m214 -150
c117 -156 200 -314 230 -437 57 -238 -141 -433 -405 -399 -178 24 -308 175
-292 342 13 137 110 329 271 537 l79 103 30 -35 c16 -19 55 -69 87 -111z"/>
<path d="M671 1436 c-7 -9 -9 -33 -5 -69 11 -91 -25 -146 -131 -203 -25 -14
-31 -47 -11 -63 36 -30 146 36 193 116 24 41 28 59 28 124 0 80 -12 109 -45
109 -10 0 -23 -6 -29 -14z"/>
<path d="M1403 1255 c-84 -95 -85 -100 -57 -225 75 -333 85 -371 115 -405 46
-52 80 -59 222 -46 200 18 216 21 227 41 12 22 4 46 -16 54 -8 3 -82 -1 -166
-10 -167 -17 -191 -14 -212 19 -15 23 -107 407 -106 442 1 11 20 41 43 67 40
44 44 46 82 39 l39 -6 38 -119 38 -118 -31 -71 c-35 -79 -31 -102 15 -102 24
0 31 8 62 78 19 43 34 86 34 95 0 10 -16 65 -35 122 -19 57 -35 106 -35 108 0
5 99 -3 103 -9 2 -2 50 -132 107 -289 56 -157 107 -291 113 -298 6 -7 19 -12
30 -10 48 7 45 24 -73 347 -62 171 -118 315 -124 321 -9 7 -298 40 -351 40 -2
0 -30 -29 -62 -65z"/>
</g>
</svg>
