<svg width="59" height="77" viewBox="0 0 59 77" fill="none" xmlns="http://www.w3.org/2000/svg">
<g clip-path="url(#clip0_50_127)">
<path d="M17.0972 51.8165C17.0972 55.3246 14.2533 58.1682 10.7455 58.1682C7.23735 58.1682 4.39374 55.3246 4.39374 51.8165C4.39374 48.3087 7.23735 45.4648 10.7455 45.4648C14.2533 45.4648 17.0972 48.3087 17.0972 51.8165Z" fill="#BAFFFF"/>
<path d="M65.2703 51.8165C65.2703 55.3246 62.4267 58.1682 58.9189 58.1682C55.4107 58.1682 52.5671 55.3246 52.5671 51.8165C52.5671 48.3087 55.4107 45.4648 58.9189 45.4648C62.4267 45.4648 65.2703 48.3087 65.2703 51.8165Z" fill="#BAFFFF"/>
<path d="M24.9197 18.8316H77V43.7193H24.9197V18.8316Z" fill="#BAFFFF"/>
<path d="M53.9969 45.464H21.6158V24.9916L4.9569 26.2597C4.9569 26.2597 1.30319 35.304 -0.000488281 38.4905V50.2125C-0.000488281 51.0987 0.717858 51.8172 1.60342 51.8172H2.70606C2.70606 47.3766 6.30594 43.7784 10.7449 43.7784C15.1854 43.7784 18.7837 47.3775 18.7837 51.8172H50.8818C50.8818 49.2319 52.1022 46.9352 53.9963 45.4644L53.9969 45.464ZM15.1947 37.0665L2.37162 38.679L6.07526 29.061L15.1953 28.3657V37.0667L15.1947 37.0665Z" fill="#BAFFFF"/>
</g>
<defs>
<clipPath id="clip0_50_127">
<rect width="77" height="77" fill="white"/>
</clipPath>
</defs>
</svg>
