<?xml version="1.0" encoding="UTF-8"?>
<svg version="1.1" viewBox="0 0 2048 2048" width="1280" height="1280" xmlns="http://www.w3.org/2000/svg">
<path transform="translate(933,554)" d="m0 0h179l11 2 10 5 10 9 6 10 3 10 1 120v456l-1 291-4 13-8 11-9 7-10 4-15 2h-166l-14-2-12-6-9-8-6-10-3-9-1-11v-852l2-12 5-10 6-8 10-7 9-4zm49 86v767h84v-767z"/>
<path transform="translate(592,554)" d="m0 0h180l9 2 9 4 9 7 8 11 4 12v866l-3 11-6 10-5 5-7 6-10 4-16 2h-166l-13-2-10-4-12-11-6-10-3-11-1-95v-688l1-81 3-11 5-9 8-9 10-6 5-2zm49 86-1 19v748h85v-766l-1-1z"/>
<path transform="translate(1616,554)" d="m0 0h180l9 2 9 4 9 7 8 11 4 12v866l-4 13-7 11-10 8-10 4-16 2h-166l-13-2-10-4-12-11-6-10-3-11-1-96v-687l1-81 3-11 5-9 8-9 10-6 5-2zm49 86-1 19v748h85v-766l-1-1z"/>
<path transform="translate(250,554)" d="m0 0h181l12 3 10 6 3 2v2h2l7 10 4 11 1 7v855l-2 14-7 13-9 9-13 6-16 2h-166l-14-2-12-6-7-6-7-10-4-11-1-859 2-15 6-12 9-10 10-6 5-2zm49 86v767h84v-767z"/>
<path transform="translate(1275,554)" d="m0 0h180l12 3 10 6 3 2v2h2l7 10 4 11 1 7v855l-2 14-7 13-9 9-13 6-16 2h-167l-13-2-12-6-7-6-7-10-4-11-1-858 2-16 6-12 9-10 10-6 5-2zm48 86v767h84v-767z"/>
</svg>
